<?xml version="1.0" encoding="utf-8"?>
<!-- Generator: Adobe Illustrator 23.0.3, SVG Export Plug-In . SVG Version: 6.00 Build 0)  -->
<svg version="1.1" id="Layer_1" xmlns="http://www.w3.org/2000/svg" xmlns:xlink="http://www.w3.org/1999/xlink" x="0px" y="0px"
	 viewBox="0 0 160 160" style="enable-background:new 0 0 160 160;" xml:space="preserve">
<style type="text/css">
	.st0{fill:#ED7A41;}
	.st1{fill:#703218;}
	.st2{fill:#FFFFFF;}
	.st3{opacity:0.38;fill:#562412;}
</style>
<g>
	<circle class="st0" cx="80" cy="80" r="75"/>
	<g>
		<path class="st1" d="M114.65,59.03c0.16-0.55,0.3-1.09,0.4-1.62c0.03-0.15,0.04-0.3,0.06-0.45c0.08-0.5,0.14-0.99,0.16-1.48
			c0.01-0.16,0-0.32,0-0.48c0.01-0.47-0.01-0.93-0.05-1.39c-0.01-0.06,0-0.13-0.01-0.19c-0.01-0.11-0.05-0.21-0.06-0.31
			c-0.06-0.4-0.13-0.8-0.23-1.2c-0.04-0.17-0.09-0.33-0.14-0.5c-0.11-0.37-0.23-0.74-0.38-1.1c-0.03-0.08-0.05-0.17-0.09-0.25
			c-0.04-0.09-0.09-0.17-0.14-0.25c-0.35-0.75-0.74-1.48-1.25-2.19c0.31-1.17,0.39-2.31,0.25-3.41c0-0.02,0-0.03,0-0.05
			c-0.04-0.29-0.09-0.59-0.16-0.88c-0.04-0.15-0.09-0.3-0.13-0.45c-0.04-0.15-0.09-0.3-0.14-0.45c-0.07-0.18-0.14-0.37-0.22-0.55
			c-0.05-0.11-0.1-0.23-0.16-0.34c-0.09-0.18-0.18-0.37-0.28-0.55c-0.01-0.02-0.02-0.05-0.03-0.07c-0.05-0.08-0.11-0.16-0.16-0.25
			c-0.12-0.19-0.23-0.38-0.36-0.57c-0.11-0.16-0.25-0.32-0.37-0.48c-0.09-0.12-0.17-0.24-0.27-0.35c0.05,0,0.1-0.01,0.15-0.01
			c0.04,0,0.08,0.01,0.12,0c0.09-0.01,0.17-0.03,0.26-0.05c0.03-0.01,0.06-0.01,0.09-0.03c0.09-0.04,0.17-0.09,0.24-0.15
			c0.02-0.02,0.04-0.02,0.06-0.04c0.09-0.08,0.17-0.17,0.22-0.28c0.09-0.17,0.13-0.37,0.12-0.56c0,0,0,0,0,0
			c0-0.09-0.06-0.16-0.08-0.24c-0.03-0.1-0.04-0.21-0.1-0.3l0,0c0,0,0,0,0,0c0,0,0,0,0,0l-0.14-0.2c0-0.01-0.01-0.01-0.01-0.01
			l-0.31-0.43c-0.05-0.07-0.1-0.13-0.15-0.2c-0.51-0.7-1.06-1.4-1.67-2.11c-0.09-0.11-0.19-0.22-0.31-0.36
			c-0.16-0.19-0.33-0.37-0.5-0.56l-0.11-0.12c-0.19-0.2-0.37-0.39-0.54-0.57c-0.04-0.04-0.08-0.08-0.12-0.12
			c-0.18-0.18-0.37-0.36-0.56-0.55c-0.12-0.12-0.23-0.23-0.36-0.35l-0.16-0.15c-0.12-0.11-0.23-0.2-0.34-0.3
			c-0.04-0.03-0.08-0.07-0.12-0.1l-0.45-0.38c-0.01,0-0.15-0.12-0.15-0.12c-0.16-0.13-0.33-0.27-0.48-0.38
			c-0.06-0.05-0.12-0.09-0.18-0.14c-0.03-0.02-0.06-0.05-0.1-0.07c-0.06-0.04-0.12-0.1-0.18-0.14c-0.36-0.27-0.74-0.52-1.15-0.78
			c-0.05-0.03-0.09-0.06-0.14-0.09c-0.05-0.03-0.09-0.06-0.15-0.09l-0.36-0.22c-0.18-0.1-0.35-0.21-0.51-0.29
			c-0.15-0.08-0.29-0.16-0.39-0.21c-0.03-0.02-0.06-0.04-0.09-0.05c0.11-0.06,0.21-0.14,0.29-0.23c0.01-0.01,0.01-0.02,0.02-0.03
			c0.07-0.08,0.13-0.18,0.18-0.28c0,0,0-0.01,0-0.01c0,0,0,0,0,0c0.02-0.05,0.02-0.09,0.03-0.14c0.02-0.07,0.04-0.13,0.04-0.19
			c0-0.03-0.01-0.07-0.01-0.1c0-0.08-0.01-0.16-0.03-0.23c0-0.01-0.01-0.02-0.01-0.03c-0.03-0.1-0.07-0.19-0.13-0.27
			c-0.06-0.09-0.14-0.18-0.24-0.25c-0.49-0.37-0.99-0.72-1.49-1.05c-8.51-5.72-16.01-4.25-21.35-1.4c-0.66,0.32-1.31,0.67-1.94,1.06
			c-0.05-0.06-0.12-0.09-0.17-0.13c-0.07-0.05-0.12-0.12-0.2-0.15c-0.15-0.07-0.32-0.11-0.49-0.1c-0.02,0-0.04,0-0.06,0
			c-0.2,0.01-0.4,0.02-0.57,0.04c-0.28,0.02-0.56,0.04-0.81,0.07c-0.02,0-0.03,0-0.05,0.01c-0.07,0.01-0.14,0.01-0.21,0.02
			c-0.05,0.01-0.1,0.01-0.14,0.02c-0.23,0.03-0.46,0.06-0.78,0.11c-0.09,0.01-0.17,0.03-0.17,0.03c0,0,0,0,0,0
			c-0.01,0-0.15,0.02-0.16,0.03c-0.11,0.01-0.22,0.03-0.4,0.07c-0.14,0.02-0.28,0.05-0.44,0.09c-0.11,0.02-0.23,0.05-0.28,0.06
			c-0.15,0.03-0.3,0.07-0.43,0.1c-0.32,0.08-0.62,0.16-0.86,0.24c-0.16,0.04-0.31,0.09-0.43,0.13c-0.16,0.05-0.32,0.11-0.47,0.16
			c-1.01,0.36-1.97,0.81-2.87,1.35c-0.12,0.08-0.25,0.15-0.45,0.29c-0.1,0.07-0.2,0.13-0.27,0.18c-0.1,0.07-0.2,0.14-0.32,0.23
			c-0.01,0.01-0.03,0.02-0.05,0.03l0,0c-0.02,0.01-0.03,0.02-0.04,0.03l-0.62,0.49c-0.23,0.19-0.45,0.39-0.63,0.57
			c-0.11,0.09-0.21,0.2-0.29,0.28c-0.1,0.1-0.2,0.2-0.3,0.32l-0.26,0.3c-0.17,0.19-0.33,0.39-0.49,0.59
			c-0.01,0.01-0.1,0.13-0.11,0.14l-0.16,0.22c-0.01,0.02-0.03,0.04-0.04,0.06c-0.05,0.07-0.11,0.15-0.17,0.25
			c-0.02,0.02-0.03,0.04-0.04,0.06l-0.17,0.27c-0.29,0.44-0.54,0.9-0.76,1.34c-0.06,0.12-0.12,0.24-0.18,0.36
			c-0.35,0.73-0.64,1.5-0.87,2.28l-0.19,0.69c-0.06,0.23-0.12,0.45-0.16,0.67c-0.01,0.03-0.01,0.07-0.02,0.1
			c-0.12,0.52-0.22,1.05-0.3,1.6c-1.47-2.23-2.05-4.95-2.24-6c-0.03-0.16-0.05-0.33-0.07-0.47c-0.01-0.05-0.03-0.09-0.04-0.14
			c-0.02-0.05-0.02-0.11-0.05-0.16c-0.03-0.06-0.07-0.1-0.1-0.16c-0.02-0.04-0.04-0.07-0.07-0.11c-0.05-0.06-0.11-0.1-0.17-0.14
			c-0.02-0.02-0.04-0.04-0.07-0.06c-0.07-0.04-0.16-0.07-0.24-0.1c-0.02-0.01-0.04-0.02-0.06-0.02c0,0,0,0,0,0c0,0-0.01,0-0.01,0
			c-0.08-0.02-0.16-0.02-0.24-0.02c-0.02,0-0.05-0.01-0.07-0.01c-0.32,0.02-0.62,0.18-0.81,0.45c-0.01,0.01-0.01,0.02-0.01,0.02
			c-3.54,5.12-2.35,10.91-0.49,15.19c-0.06,0.03-0.11,0.09-0.18,0.12c-0.29,0.17-0.57,0.35-0.83,0.56
			c-0.18,0.14-0.36,0.29-0.53,0.45c-0.07,0.07-0.13,0.14-0.19,0.21c-0.35,0.37-0.66,0.78-0.92,1.23c-0.08,0.14-0.15,0.28-0.23,0.43
			c-0.16,0.33-0.31,0.66-0.44,1.03c-0.12,0.34-0.22,0.7-0.31,1.07c-0.02,0.08-0.05,0.15-0.07,0.24c-0.01,0.06-0.01,0.12-0.02,0.18
			c-0.08,0.45-0.15,0.91-0.18,1.4c0,0.02,0.01,0.04,0.01,0.06c0,0,0,0.01,0,0.01c0,0.03,0.01,0.06,0.01,0.08
			c0.01,0.08,0.02,0.16,0.04,0.24c0.01,0.04,0.03,0.07,0.04,0.1c0.04,0.09,0.09,0.17,0.15,0.25c0.02,0.02,0.02,0.04,0.04,0.06
			c0.01,0.01,0.03,0.02,0.04,0.03c0.01,0.01,0.02,0.03,0.04,0.04c0.04,0.03,0.09,0.06,0.13,0.09c0.04,0.02,0.07,0.05,0.11,0.07
			c0.01,0,0.01,0,0.02,0.01c0.01,0.01,0.03,0.01,0.04,0.02c0.01,0,0.01,0.01,0.02,0.01c0.04,0.02,0.08,0.03,0.12,0.04
			c0.01,0,0.02,0,0.03,0c0.06,0.01,0.11,0.02,0.17,0.02c0.02,0,0.04,0.01,0.06,0.01h0c0.02,0,0.03-0.01,0.04-0.01
			c0.04,0,0.08-0.01,0.13-0.01c0.03,0,0.05-0.01,0.07-0.02c0.05-0.01,0.11-0.02,0.16-0.04c0.02-0.01,0.03-0.02,0.04-0.03
			c0.06-0.03,0.12-0.06,0.18-0.1c0,0,0.01,0,0.01-0.01c0,0,0.01-0.01,0.01-0.01c0,0,0,0,0,0c0,0,0.01-0.01,0.02-0.01
			c0.14-0.1,0.28-0.2,0.42-0.3c0.1-0.07,0.22-0.15,0.36-0.24c0.02-0.01,0.11-0.07,0.13-0.08c0,0,0.13-0.08,0.13-0.08l0.23-0.14
			c0.88-0.54,1.71-0.92,2.41-1.14c-2.01,3.38-3.77,6.76-4.54,10.34c-0.01,0.06-0.02,0.13-0.03,0.19c-0.07,0.33-0.13,0.67-0.18,1.03
			c-0.62,4.02-0.14,8.28,0.54,12.18c-0.76-0.12-1.37,0.08-1.81,0.34c-2.43,1.43-2.66,6.55-2.35,8.34c0.02,0.12,3.1,12.53,7.2,13.39
			c0.33,0.07,0.82,0.1,1.36-0.11c1.33,5.56,3.23,9.64,6.22,13.41c5.67,7.15,10.8,10.78,15.26,10.78c1.66,0,4.93-0.3,8.15-2.31
			c0.5-0.31,0.65-0.97,0.34-1.46c-0.31-0.5-0.97-0.65-1.46-0.34c-2.77,1.73-5.59,1.98-7.02,1.98c-3.78,0-8.35-3.35-13.6-9.97
			c-3.04-3.83-4.88-8.05-6.15-14.07c-0.4-1.89-0.75-3.85-1.08-5.71c-0.1-0.58-0.65-0.97-1.23-0.86c-0.58,0.1-0.97,0.65-0.86,1.23
			c0.29,1.65,0.61,3.39,0.96,5.1c-0.14,0.15-0.3,0.28-0.44,0.25c-1.95-0.41-5.09-9.08-5.54-11.68c-0.31-1.78,0.23-5.48,1.34-6.14
			c0.32-0.19,0.78,0.02,1.19,0.3c0.16,0.83,0.32,1.58,0.45,2.17c0.11,0.47,0.52,0.81,1,0.83c0.01,0,0.03,0,0.04,0
			c0.47,0,0.88-0.3,1.02-0.75L56.93,79c0.13-0.62,0.28-1.27,0.45-1.98l0.1-0.42c0.06-0.25,0.12-0.5,0.17-0.7
			c0.02-0.08,0.05-0.17,0.04-0.18l0.75-3.37c0.18-0.91,0.37-1.89,0.54-2.94l0.12-0.74c0.18-1.22,0.34-2.47,0.45-3.7
			c0.02-0.2,0.04-0.41,0.06-0.6l0.06-0.68c0.64-8.23,5.4-12.1,8.11-13.08l0.26-0.09c0.01,0,0.17-0.05,0.18-0.05
			c0.08-0.02,0.15-0.04,0.25-0.06l0.15-0.02c1.26-0.12,3-0.29,5.66,0.39c0.23,0.06,1.34,0.49,2.15,0.81c1.53,0.6,2.56,1,3.04,1.12
			c0.44,0.11,0.91,0.11,1.35,0c0.48-0.12,1.52-0.52,3.04-1.12c0.81-0.32,1.91-0.75,2.15-0.81c0.58-0.15,1.12-0.25,1.61-0.33
			c0.61-0.09,1.19-0.15,1.77-0.16c0.19,0,0.37-0.01,0.57,0c0.67,0.01,1.24,0.06,1.73,0.11c0.57,0.07,1.11-0.37,1.16-0.95
			c0.06-0.58-0.37-1.11-0.95-1.16c-0.54-0.05-1.17-0.11-1.89-0.12c-0.21-0.01-0.43,0-0.69,0c-0.67,0.02-1.33,0.08-2.04,0.19
			c-0.56,0.09-1.16,0.21-1.8,0.37c-0.34,0.09-1.09,0.38-2.4,0.89c-1.01,0.4-2.4,0.94-2.79,1.03c-0.1,0.02-0.21,0.02-0.31,0
			C79.6,50.54,78.21,50,77.2,49.6c-1.3-0.51-2.06-0.8-2.4-0.89c-3.02-0.77-5.05-0.57-6.43-0.44c-0.1,0.01-0.21,0.02-0.28,0.04
			c-0.14,0.02-0.3,0.06-0.43,0.1c-0.1,0.02-0.19,0.05-0.27,0.08c-0.11,0.03-0.22,0.07-0.34,0.12c-3.19,1.16-8.78,5.6-9.5,14.92
			l-0.11,1.24c-0.11,1.2-0.26,2.42-0.44,3.6l-0.11,0.72c-0.17,1.02-0.34,1.97-0.52,2.84l-0.56,2.55l-0.05,0.21l-0.12,0.52
			c0,0.01-0.04,0.16-0.04,0.17c-0.05,0.24-0.11,0.47-0.17,0.72l-0.05,0.19c-0.01-0.05-0.02-0.1-0.02-0.15l-0.06-0.36
			c-0.09-0.57-0.18-1.17-0.25-1.8c-0.04-0.26-0.07-0.53-0.1-0.83c-0.03-0.22-0.05-0.44-0.08-0.75l-0.06-0.66
			c-0.08-0.9-0.14-1.83-0.16-2.74l-0.01-0.45c-0.02-1.36,0.05-2.57,0.19-3.65c0.05-0.37,0.11-0.75,0.18-1.11
			c0.01-0.03,0.01-0.07,0.02-0.11c0.18-0.83,0.48-1.8,0.91-2.88l0.29-0.71c0.25-0.6,0.53-1.21,0.83-1.83l0.42-0.85
			c0.24-0.47,0.49-0.94,0.74-1.41c0.26-0.48,0.53-0.96,0.84-1.51l0.65-1.11c0.22-0.37,0.43-0.73,0.65-1.09c0-0.01,0-0.02,0.01-0.02
			c0.09-0.15,0.13-0.31,0.14-0.48c0-0.06-0.02-0.11-0.02-0.16c-0.01-0.1-0.01-0.19-0.04-0.29c-0.01-0.03-0.03-0.04-0.05-0.07
			c-0.01-0.02,0-0.04-0.01-0.06c-0.04-0.07-0.1-0.12-0.15-0.17c-0.04-0.04-0.06-0.09-0.1-0.12c-0.11-0.09-0.24-0.17-0.38-0.21
			c0,0-0.01,0-0.01,0c0,0-0.01,0-0.01,0c-0.04-0.01-0.08-0.01-0.12-0.02c-0.16-0.04-0.33-0.08-0.5-0.1
			c-1.5-0.18-3.01,0.37-4.39,1.15c0.46-1.27,1.35-2.58,3.05-3.12c0.29-0.09,0.53-0.31,0.65-0.6c0.12-0.28,0.11-0.61-0.02-0.88
			c-0.01-0.03-0.03-0.06-0.04-0.08c-0.14-0.29-0.27-0.59-0.41-0.9c-1.03-2.43-2.3-6.61-0.98-10.56c0.65,2.2,1.81,4.73,3.91,6.55
			c0,0,0,0,0,0c0.01,0.01,0.02,0.01,0.04,0.02c0.05,0.04,0.11,0.08,0.17,0.11c2.36,1.84,5.8,1.91,5.94,1.91c0,0,0.01,0,0.01,0
			c0.58,0,1.05-0.47,1.06-1.05c0.01-0.59-0.46-1.07-1.05-1.08c-0.03,0-2.58-0.05-4.37-1.24c0.02-0.34,0.05-0.68,0.08-1.01
			c0.02-0.15,0.03-0.3,0.04-0.45c0.01-0.05,0.01-0.1,0.02-0.15c0.05-0.37,0.12-0.71,0.19-1.06c0.23-1.09,0.55-2.12,0.97-3.07
			c-0.14,1.61,0.07,3.34,0.68,5.2c0.18,0.56,0.78,0.86,1.34,0.68c0.56-0.18,0.86-0.78,0.68-1.34c-0.89-2.73-0.83-5.1,0.18-7.05
			c1.24-2.39,3.75-3.87,6.05-4.77c-0.68,0.77-1.25,1.64-1.57,2.64c-0.09,0.26-0.14,0.53-0.19,0.79c-0.02,0.08-0.05,0.16-0.06,0.25
			c-0.02,0.12-0.01,0.24,0.01,0.35c0,0,0,0.01,0,0.01c0.02,0.11,0.06,0.21,0.11,0.31c0.02,0.03,0.05,0.06,0.07,0.09
			c0.04,0.06,0.09,0.13,0.15,0.18c0.04,0.03,0.08,0.05,0.13,0.08c0.05,0.04,0.1,0.08,0.16,0.11c0,0,0,0,0.01,0c0,0,0,0,0.01,0
			c0.05,0.02,0.1,0.02,0.16,0.04c0.06,0.02,0.12,0.04,0.18,0.04c0.05,0,0.09-0.01,0.14-0.01c0.07,0,0.14,0,0.21-0.02
			c0.04-0.01,0.07-0.03,0.11-0.05c0.07-0.03,0.14-0.05,0.2-0.09c0.05-0.03,0.08-0.07,0.12-0.11c0.04-0.04,0.09-0.07,0.13-0.12
			c0.37-0.46,0.75-0.89,1.13-1.31c0.12-0.13,0.25-0.26,0.39-0.4c0.23-0.23,0.46-0.46,0.69-0.68c0.25-0.24,0.53-0.49,0.82-0.74
			c0.29-0.25,0.58-0.5,0.88-0.74c0.06-0.05,0.12-0.09,0.18-0.14c6.23-4.75,14.17-5.49,21.06-1.85c-0.2,0.01-0.41,0.03-0.6,0.05
			c-0.29,0.03-0.58,0.06-0.87,0.1c-0.12,0.01-0.24,0.03-0.36,0.05l0,0.01c-0.05,0.01-0.11,0.01-0.16,0.02c0,0,0,0,0,0v0
			c-0.01,0-0.01,0-0.01,0.01c-0.12,0.02-0.24,0.06-0.35,0.12c-0.01,0.01-0.02,0.02-0.03,0.03c-0.09,0.06-0.18,0.13-0.25,0.21
			c-0.01,0.01-0.01,0.02-0.02,0.03c-0.07,0.09-0.13,0.19-0.17,0.29c-0.01,0.03-0.01,0.06-0.01,0.08c-0.03,0.1-0.05,0.19-0.05,0.29
			c0,0,0,0,0,0c0,0,0,0,0,0c0,0.11,0.03,0.2,0.06,0.3c0.01,0.02,0.01,0.05,0.02,0.08c0.14,0.35,0.47,0.61,0.86,0.66
			c0.01,0,0.01,0,0.02,0c0.62,0.07,1.23,0.19,1.82,0.34c0.08,0.02,0.16,0.04,0.25,0.06c0.57,0.15,1.12,0.34,1.66,0.55L100,29.8
			c0.01,0,0.02,0.01,0.03,0.01c0.57,0.23,1.12,0.5,1.66,0.79c0.01,0,0.01,0.01,0.02,0.01c0,0,0.01,0.01,0.01,0.01
			c0.47,0.26,0.92,0.55,1.36,0.84c0.14,0.09,0.28,0.19,0.42,0.29c0.46,0.32,0.9,0.65,1.33,1.01l0.02,0.02
			c0.4,0.34,0.79,0.69,1.16,1.04c0.09,0.08,0.17,0.17,0.26,0.25c-4.38-1.92-7.69-1.81-9.89-1.21c-2.83,0.76-5.06,2.66-6.3,5.34
			c-0.25,0.53-0.01,1.17,0.52,1.41c0.14,0.07,0.29,0.1,0.45,0.1c0.4,0,0.79-0.23,0.97-0.62c0.98-2.13,2.68-3.58,4.92-4.18
			c2.35-0.63,5.16-0.28,8.2,0.99c-1.4-0.25-2.97-0.39-4.53-0.23c0,0,0,0,0,0c0,0,0,0,0,0c-2,0.22-3.76,0.93-5.22,2.1
			c-0.46,0.37-0.53,1.04-0.16,1.5c0.21,0.26,0.52,0.4,0.83,0.4c0.23,0,0.47-0.08,0.67-0.24c1.15-0.93,2.5-1.47,4.12-1.64
			c0,0,0,0,0,0c2.12-0.23,4.32,0.23,5.95,0.67c0.36,0.24,0.71,0.5,1.03,0.75c0.04,0.03,0.07,0.06,0.11,0.09
			c0.29,0.24,0.57,0.49,0.83,0.75c0.04,0.04,0.09,0.09,0.13,0.13c0.25,0.26,0.48,0.52,0.69,0.78c0.03,0.03,0.05,0.07,0.08,0.11
			c0.21,0.28,0.4,0.56,0.57,0.85c0,0.01,0.01,0.01,0.01,0.02c0.23,0.4,0.41,0.8,0.55,1.21c0,0.01,0.01,0.02,0.01,0.03
			c0.13,0.37,0.21,0.74,0.26,1.11c0.01,0.06,0.02,0.11,0.03,0.17c0.03,0.35-0.07,0.87-0.18,1.39c-0.15,0.72-0.3,1.46-0.17,2.14
			c0,0.01,0,0.02,0,0.03c0,0.01,0,0.02,0,0.04c0.15,0.67,0.6,1.28,1.03,1.88c0.22,0.3,0.42,0.59,0.54,0.83
			c0.07,0.16,0.13,0.31,0.19,0.47c0.09,0.23,0.17,0.45,0.24,0.69c0.06,0.2,0.12,0.41,0.17,0.61c0.05,0.2,0.08,0.41,0.12,0.61
			c0.1,0.62,0.17,1.25,0.15,1.9c0,0.02,0,0.04,0,0.06c-0.01,0.38-0.04,0.76-0.08,1.15c0,0.02,0,0.04-0.01,0.06
			c-0.05,0.4-0.12,0.81-0.22,1.22c-0.14-0.35-0.29-0.69-0.44-1.02c-0.36-2.37-1.14-4.7-2.51-6.86c-0.31-0.5-0.97-0.64-1.47-0.33
			c-0.5,0.32-0.64,0.97-0.33,1.47c3.37,5.3,2.65,11.32,1.37,15.61c-0.84-5.87-4.45-8.74-4.64-8.89c-0.46-0.36-1.13-0.27-1.49,0.2
			c-0.36,0.46-0.27,1.13,0.19,1.49c0.19,0.15,4.25,3.43,3.97,10.38c-0.74,0.87-1.5,1.77-1.96,2.81c-0.07,0.13-0.11,0.26-0.14,0.39
			c-0.1,0.29-0.19,0.59-0.26,0.91c-0.1-0.28-0.2-0.57-0.31-0.85c-0.81-2.21-1.74-4.72-2.09-9.33c-0.05-0.59-0.56-1.04-1.14-0.98
			c-0.59,0.05-1.02,0.56-0.98,1.14c0.38,4.91,1.36,7.56,2.22,9.9c0.74,2.01,1.33,3.61,1.37,6.22c0.01,0.55,0.43,1,0.98,1.04
			c0.03,0,0.06,0,0.09,0c0.51,0,0.95-0.36,1.04-0.87c0.1-0.53,0.18-1,0.26-1.45c0.69-0.33,0.99-0.14,1.09-0.06
			c1.1,0.74,1.5,4.17,1.18,6.02c-0.47,2.66-3.52,11.22-5.49,11.68c-0.11,0.02-0.25-0.04-0.41-0.18c0.39-1.95,0.74-3.94,1.08-5.87
			l0.24-1.34c0.1-0.58-0.28-1.13-0.86-1.23c-0.58-0.1-1.13,0.28-1.23,0.86l-0.24,1.35c-0.36,2.05-0.73,4.18-1.15,6.25
			c0,0.01,0,0.02,0,0.04c0,0.02-0.02,0.03-0.02,0.05c-1.31,6.41-3.28,10.91-6.58,15.05c-0.37,0.46-0.29,1.13,0.17,1.49
			c0.46,0.37,1.13,0.29,1.49-0.17c3.23-4.05,5.26-8.4,6.64-14.3c0.55,0.19,1.03,0.15,1.36,0.08c4.11-0.95,7.09-13.26,7.11-13.38
			c0.27-1.55,0.29-6.56-2.08-8.15c-0.44-0.3-1.07-0.54-1.86-0.47c0.38-2.07,0.39-2.16,0.39-2.18c0.03-0.22,0.05-0.45,0.08-0.68
			c0.02-0.02,0.03-0.03,0.04-0.05c0.03,0.02,0.05,0.06,0.09,0.08c0.17,0.09,0.35,0.14,0.52,0.14c0.37,0,0.73-0.19,0.93-0.54
			c0.04-0.07,0.07-0.14,0.11-0.21c0.07-0.09,0.11-0.18,0.15-0.29c0.78-1.45,1.49-3.09,2.05-4.86c0.08-0.18,0.15-0.35,0.22-0.53
			c0.08-0.2,0.16-0.4,0.24-0.6c0.15-0.4,0.28-0.79,0.4-1.18c0.01-0.05,0.03-0.1,0.04-0.15c0.31-1.08,0.51-2.13,0.6-3.13
			c0.06,0,0.11-0.02,0.17-0.03c0.04-0.01,0.07-0.01,0.11-0.02c0.08-0.03,0.16-0.07,0.23-0.11c0.01-0.01,0.02-0.01,0.03-0.01
			c0.16-0.11,0.29-0.26,0.38-0.45c0.31-0.69,0.56-1.37,0.78-2.04C114.59,59.28,114.61,59.16,114.65,59.03z"/>
		<path class="st1" d="M89.87,100.66c-1.06,0.67-2.34,0.8-3.52,0.38l-0.48-0.17c-1.56-0.57-2.56-0.91-3.23-0.91c0,0,0,0,0,0
			c-0.86,0-1.41,0.33-1.82,0.56c-0.56,0.33-0.49,0.33-1.05,0c-0.4-0.24-0.96-0.56-1.82-0.56c0,0,0,0,0,0
			c-0.88,0-2.66,0.57-4.89,1.31l-0.28,0.09c-0.74,0.24-1.51,0.23-2.19-0.05c-0.54-0.22-1.16,0.03-1.39,0.57
			c-0.23,0.54,0.03,1.17,0.57,1.39c0.62,0.26,1.29,0.39,1.96,0.39c0.57,0,1.15-0.09,1.71-0.28l0.28-0.09
			c1.17-0.39,3.61-1.2,4.21-1.2c0,0,0,0,0,0c0.27,0,0.42,0.08,0.74,0.27c0.37,0.22,0.87,0.51,1.6,0.51s1.24-0.3,1.6-0.51
			c0.32-0.19,0.47-0.27,0.74-0.27c0.35,0.01,1.65,0.48,2.5,0.79l0.49,0.17c1.8,0.65,3.76,0.43,5.37-0.58
			c0.5-0.31,0.65-0.97,0.33-1.47C91.02,100.5,90.36,100.35,89.87,100.66z"/>
		<path class="st1" d="M97.75,72.95c0.2,0.18,0.45,0.27,0.71,0.27c0.29,0,0.58-0.12,0.79-0.36c0.39-0.44,0.35-1.11-0.09-1.5
			c-0.22-0.2-2.24-1.96-4.22-2.42c-0.99-0.23-2.35,0.01-3.79,0.27c-1.23,0.22-3.08,0.54-3.65,0.22c-0.2-0.11-0.44-0.51-0.53-0.66
			c-0.3-0.5-0.96-0.67-1.46-0.36c-0.5,0.3-0.67,0.96-0.36,1.46c0.3,0.51,0.7,1.07,1.3,1.41c1.24,0.7,3.1,0.37,5.07,0.02
			c1.11-0.2,2.38-0.42,2.94-0.29C95.7,71.3,97.26,72.51,97.75,72.95z"/>
		<path class="st1" d="M77.27,67.87c-0.27-0.09-0.57-0.08-0.82,0.05c-0.36,0.18-0.96-0.06-1.99-0.5c-1.28-0.55-3.04-1.31-5.43-1.31
			c-4.84,0-6.62,3.87-6.69,4.03c-0.24,0.54,0,1.17,0.54,1.4c0.54,0.24,1.17,0,1.4-0.54c0.01-0.03,1.28-2.77,4.75-2.77
			c1.95,0,3.35,0.6,4.59,1.14c0.91,0.39,1.79,0.77,2.66,0.74c1.64,4.72-1.12,10.39-1.15,10.45c-0.26,0.53-0.05,1.16,0.48,1.43
			c0.15,0.08,0.31,0.11,0.47,0.11c0.39,0,0.77-0.22,0.95-0.59c0.15-0.29,3.58-7.3,0.85-13.09C77.76,68.17,77.54,67.97,77.27,67.87z"
			/>
		<path class="st1" d="M86.12,104.42c-0.02,0.01-2.38,1.42-4.41,1.12c-0.94-0.15-1.9-0.15-2.84,0c-2.03,0.31-4.38-1.1-4.4-1.12
			c-0.5-0.31-1.15-0.15-1.46,0.35c-0.31,0.5-0.15,1.15,0.35,1.46c0.12,0.08,3.04,1.84,5.85,1.41c0.72-0.11,1.46-0.11,2.19,0
			c0.31,0.05,0.62,0.07,0.93,0.07c2.49,0,4.81-1.41,4.92-1.48c0.5-0.31,0.66-0.96,0.35-1.46C87.28,104.27,86.62,104.11,86.12,104.42
			z"/>
		<path class="st1" d="M75.59,89.41c-1.89-0.5-3.35,1.42-3.51,1.64c-0.34,0.47-0.24,1.13,0.23,1.48c0.47,0.35,1.14,0.25,1.49-0.22
			c0.27-0.36,0.8-0.83,1.16-0.84c0.88,0.69,3.28,2.41,5.33,2.41c2.06,0,4.46-1.72,5.33-2.41c0.36,0.02,0.89,0.48,1.16,0.84
			c0.34,0.47,1.01,0.58,1.49,0.23c0.48-0.35,0.58-1.01,0.23-1.49c-0.16-0.22-1.61-2.12-3.5-1.64c-0.21,0.05-0.4,0.15-0.57,0.29
			c-1.22,0.99-3.03,2.05-4.14,2.05c-1.26,0-3.19-1.29-4.14-2.05C75.98,89.55,75.8,89.46,75.59,89.41z"/>
	</g>
	<path class="st2" d="M119.01,50.39c-1.19-0.34-2.85-0.59-4.91-0.75c0.03,0.06,0.05,0.12,0.08,0.17c0.04,0.09,0.1,0.17,0.14,0.25
		c0.04,0.08,0.05,0.17,0.09,0.25c0.15,0.36,0.27,0.72,0.38,1.09c1.57,0.15,2.83,0.36,3.76,0.62c1.17,0.33,1.4,0.63,1.42,0.63
		c-0.39,1.68-13.56,6.21-38.47,9.26C56.6,64.97,42.75,63.75,42,62.27c0-0.02,0.5-1.75,11.51-4.52c0.48-0.12,1.01-0.24,1.52-0.36
		c0.32-0.67,0.66-1.33,1.02-1.99c-1.02,0.23-2.01,0.47-2.95,0.7c-13.14,3.3-12.89,5.43-12.79,6.34c0.04,0.32,0.2,0.8,0.75,1.23
		c1.68,1.32,6.69,1.86,13.24,1.86c7.92,0,18.11-0.79,27.4-1.93c0.41-0.05,40.66-5.05,39.96-11.12
		C121.5,51.09,119.62,50.56,119.01,50.39z"/>
	<path class="st2" d="M102.53,107.04c-0.99-0.03-2.08-0.03-3.19-0.02c-0.3,0.58-0.61,1.15-0.94,1.71c1.45-0.03,2.82-0.03,4.08,0.01
		c5,0.15,6.4,0.75,6.76,0.98c-1.21,1.49-11.67,4.6-28.59,6.67c-16.87,2.07-27.76,1.58-29.3,0.43c0.36-0.37,2-1.58,8.97-3.28
		c1.26-0.31,2.63-0.61,4.06-0.9c-0.17-0.21-0.34-0.41-0.51-0.63c-0.23-0.28-0.43-0.57-0.65-0.86c-1.15,0.25-2.27,0.49-3.3,0.75
		c-10.64,2.59-10.43,4.37-10.34,5.13c0.03,0.28,0.17,0.7,0.64,1.07c1.29,1.02,5.13,1.43,10.14,1.43c5.95,0,13.56-0.59,20.5-1.44
		c3.14-0.38,30.69-3.9,30.15-8.58C110.89,108.41,109.78,107.25,102.53,107.04z"/>
	<path class="st2" d="M114.78,85.42C114.78,85.42,114.78,85.42,114.78,85.42c-1.11-0.38-2.38-0.78-3.77-1.19
		c-0.02,0.24-0.05,0.46-0.08,0.63c0,0.02-0.1,0.42-0.27,1.04c1.31,0.38,2.51,0.76,3.56,1.12c0,0,0,0,0,0
		c4.3,1.48,5.34,2.38,5.57,2.68c-1.8,1.42-17.42,1.37-42.21-2.47c-24.75-3.84-39.63-8.52-40.91-10.42
		c0.43-0.28,2.58-1.19,12.37-0.77c1.31,0.06,2.69,0.13,4.14,0.23c-0.1-0.57-0.18-1.14-0.27-1.72c-1.33-0.09-2.6-0.16-3.8-0.21
		c-13.74-0.59-14.04,1.28-14.18,2.18c-0.05,0.29-0.03,0.73,0.34,1.23c2.49,3.43,23.04,8.21,42.05,11.16
		c1.23,0.19,21.79,3.35,34.44,3.35c5.49,0,9.49-0.6,9.77-2.29C121.72,88.88,121.03,87.57,114.78,85.42z"/>
	<ellipse class="st3" cx="80.43" cy="133.49" rx="16.56" ry="2.5"/>
</g>
</svg>
